<svg width="25" height="27" viewBox="0 0 25 27" fill="none" xmlns="http://www.w3.org/2000/svg">
<path d="M13.2687 8.16105V11.0869C14.4082 11.3404 15.4211 11.7572 16.482 12.0451V9.11487C15.3469 8.86567 14.3253 8.44891 13.2687 8.16105ZM23.0178 2.87638C21.5203 3.55952 19.6779 4.24696 17.9097 4.24696C15.5739 4.24696 13.6398 2.75178 10.6972 2.75178C9.60567 2.75178 8.63207 2.94083 7.72832 3.26736C7.85056 2.95372 7.90732 2.6143 7.88549 2.25339C7.8069 1.03319 6.78964 0.053595 5.54534 0.00203724C4.14824 -0.053817 3 1.04608 3 2.40806C3 3.2244 3.41476 3.9462 4.04783 4.38015V20.9688C4.04783 21.5403 4.51498 22 5.09565 22H5.7942C6.37487 22 6.84203 21.5403 6.84203 20.9688V16.913C8.07759 16.3931 9.61877 15.9635 11.8367 15.9635C14.1768 15.9635 16.1066 17.4586 19.0492 17.4586C21.1536 17.4586 22.8345 16.7583 24.3975 15.7014C24.7773 15.4436 25 15.0225 25 14.5671V4.12236C25.0044 3.12128 23.9434 2.45533 23.0178 2.87638ZM10.0554 13.9871C8.92895 14.1031 7.87239 14.3394 6.84203 14.7003V11.6713C7.98591 11.2717 8.91585 11.0268 10.0554 10.9237V13.9871ZM22.9087 8.20831C21.8783 8.62936 20.8873 9.04612 19.6954 9.23517V12.29C20.7781 12.1439 21.9395 11.783 22.9087 11.1729V14.2019C21.8128 14.8936 20.7912 15.2631 19.6954 15.3662V12.29C18.5166 12.4489 17.6041 12.3544 16.482 12.0494V14.9452C15.4386 14.6272 14.4169 14.2277 13.2687 14.03V11.0869C12.4086 10.8979 11.4874 10.7948 10.0554 10.9237V7.91615C9.07739 8.04934 8.10815 8.35439 6.84203 8.81411V5.7851C8.29152 5.26093 9.02937 4.93439 10.0554 4.83987V7.91615C11.2342 7.75718 12.1685 7.86029 13.2687 8.16105V5.26522C14.3034 5.58316 15.3294 5.98273 16.482 6.18037V9.11916C17.5168 9.34687 18.5602 9.41562 19.6954 9.23517V6.146C20.8742 5.93977 21.9788 5.56168 22.9087 5.17929V8.20831Z" fill="#03045E"/>
</svg>
