<svg width="22" height="22" viewBox="0 0 22 22" fill="none" xmlns="http://www.w3.org/2000/svg">
<path d="M10.2687 8.16105V11.0869C11.4082 11.3404 12.4211 11.7572 13.482 12.0451V9.11487C12.3469 8.86567 11.3253 8.44891 10.2687 8.16105ZM20.0178 2.87638C18.5203 3.55952 16.6779 4.24696 14.9097 4.24696C12.5739 4.24696 10.6398 2.75178 7.69716 2.75178C6.60567 2.75178 5.63207 2.94083 4.72832 3.26736C4.85056 2.95372 4.90732 2.6143 4.88549 2.25339C4.8069 1.03319 3.78964 0.053595 2.54534 0.00203724C1.14824 -0.053817 0 1.04608 0 2.40806C0 3.2244 0.414765 3.9462 1.04783 4.38015V20.9688C1.04783 21.5403 1.51498 22 2.09565 22H2.7942C3.37487 22 3.84203 21.5403 3.84203 20.9688V16.913C5.07759 16.3931 6.61877 15.9635 8.83667 15.9635C11.1768 15.9635 13.1066 17.4586 16.0492 17.4586C18.1536 17.4586 19.8345 16.7583 21.3975 15.7014C21.7773 15.4436 22 15.0225 22 14.5671V4.12236C22.0044 3.12128 20.9434 2.45533 20.0178 2.87638ZM7.05536 13.9871C5.92895 14.1031 4.87239 14.3394 3.84203 14.7003V11.6713C4.98591 11.2717 5.91585 11.0268 7.05536 10.9237V13.9871ZM19.9087 8.20831C18.8783 8.62936 17.8873 9.04612 16.6954 9.23517V12.29C17.7781 12.1439 18.9395 11.783 19.9087 11.1729V14.2019C18.8128 14.8936 17.7912 15.2631 16.6954 15.3662V12.29C15.5166 12.4489 14.6041 12.3544 13.482 12.0494V14.9452C12.4386 14.6272 11.4169 14.2277 10.2687 14.03V11.0869C9.40861 10.8979 8.48739 10.7948 7.05536 10.9237V7.91615C6.07739 8.04934 5.10815 8.35439 3.84203 8.81411V5.7851C5.29152 5.26093 6.02937 4.93439 7.05536 4.83987V7.91615C8.23417 7.75718 9.16848 7.86029 10.2687 8.16105V5.26522C11.3034 5.58316 12.3294 5.98273 13.482 6.18037V9.11916C14.5168 9.34687 15.5602 9.41562 16.6954 9.23517V6.146C17.8742 5.93977 18.9788 5.56168 19.9087 5.17929V8.20831Z" fill="#03045E"/>
</svg>
