<svg width="19" height="25" viewBox="0 0 19 25" fill="none" xmlns="http://www.w3.org/2000/svg">
<path d="M8.41152 24.4956C1.31689 14.2105 0 13.1549 0 9.375C0 4.19731 4.19731 0 9.375 0C14.5527 0 18.75 4.19731 18.75 9.375C18.75 13.1549 17.4331 14.2105 10.3385 24.4956C9.8729 25.1682 8.87705 25.1681 8.41152 24.4956Z" fill="#03045E"/>
<path d="M14.0526 7.47648L13.795 6.81789L13.3383 5.65C12.9462 4.64758 12.011 4 10.9552 4H8.04479C6.98925 4 6.05379 4.64758 5.66169 5.65L5.20496 6.81789L4.94737 7.47648C4.39462 7.69141 4 8.23422 4 8.875V10C4 10.3778 4.14117 10.7188 4.36667 10.9827V12.25C4.36667 12.6641 4.69506 13 5.1 13H5.83333C6.23827 13 6.56667 12.6641 6.56667 12.25V11.5H12.4333V12.25C12.4333 12.6641 12.7617 13 13.1667 13H13.9C14.3049 13 14.6333 12.6641 14.6333 12.25V10.9827C14.8588 10.7191 15 10.378 15 10V8.875C15 8.23422 14.6054 7.69141 14.0526 7.47648ZM7.0234 6.20711C7.19046 5.78008 7.59494 5.5 8.04479 5.5H10.9552C11.4051 5.5 11.8095 5.78008 11.9766 6.20711L12.4333 7.375H6.56667L7.0234 6.20711ZM5.83333 9.99531C5.39333 9.99531 5.1 9.69625 5.1 9.24766C5.1 8.79906 5.39333 8.5 5.83333 8.5C6.27333 8.5 6.93333 9.17289 6.93333 9.62148C6.93333 10.0701 6.27333 9.99531 5.83333 9.99531ZM13.1667 9.99531C12.7267 9.99531 12.0667 10.0701 12.0667 9.62148C12.0667 9.17289 12.7267 8.5 13.1667 8.5C13.6067 8.5 13.9 8.79906 13.9 9.24766C13.9 9.69625 13.6067 9.99531 13.1667 9.99531Z" fill="#F6FCFF"/>
</svg>
